<svg data-v-fde0c5aa="" xmlns="http://www.w3.org/2000/svg" viewBox="0 0 300 300" class="iconLeft"><defs data-v-fde0c5aa=""></defs><rect data-v-fde0c5aa="" fill="#085429" x="0" y="0" width="300px" height="300px" class="logo-background-square"></rect><defs data-v-fde0c5aa=""></defs><g data-v-fde0c5aa="" id="e43ca6bd-60cb-4ba2-87b8-4bf5277b00bf" fill="#FFFFFF" transform="matrix(1.6967754538911506,0,0,1.6967754538911506,77.90205364829589,134.5333403297739)"><path d="M1.18 14L2.97 14C3.43 14 3.60 13.99 3.60 13.80C3.60 13.47 3.02 13.62 3.46 13.03L5.43 10.40C5.63 10.15 5.73 10.23 5.91 10.51L7.49 13.03C7.95 13.76 7.43 13.50 7.43 13.82C7.43 13.97 7.57 14 7.78 14L9.48 14C9.69 14 10.09 13.99 10.09 13.83C10.09 13.51 9.83 13.69 9.34 12.99L6.96 9.14C6.79 8.90 6.76 8.76 7.01 8.43L9.18 5.22C9.66 4.59 9.94 4.72 9.94 4.42C9.94 4.21 9.62 4.20 9.44 4.20L7.95 4.20C7.67 4.20 7.46 4.24 7.46 4.41C7.46 4.72 7.85 4.63 7.66 4.91L2.97 11.38C2.88 11.51 2.72 11.54 2.72 11.31L2.72 5.22C2.72 4.54 3.15 4.68 3.15 4.38C3.15 4.21 2.94 4.20 2.69 4.20L1.15 4.20C0.85 4.20 0.70 4.23 0.70 4.37C0.70 4.70 1.18 4.48 1.18 5.22L1.19 13.13C1.19 13.65 0.78 13.50 0.78 13.78C0.78 13.99 0.99 14 1.18 14ZM11.48 14L18.69 14C18.86 14 18.93 13.90 18.93 13.71L18.93 12.61C18.93 12.35 18.93 12.12 18.68 12.12C18.33 12.12 18.58 12.61 17.88 12.61L13.57 12.61C13.30 12.61 13.15 12.60 13.15 12.28L13.15 10.05C13.13 9.83 13.27 9.72 13.54 9.72L16.31 9.72C16.72 9.72 16.77 10.14 16.94 10.14C17.14 10.14 17.23 10.02 17.23 9.63L17.23 8.50C17.23 8.19 17.22 7.97 16.97 7.97C16.77 7.97 16.77 8.34 16.31 8.34L13.45 8.34C13.20 8.34 13.13 8.26 13.13 7.95L13.13 5.87C13.13 5.67 13.23 5.59 13.40 5.59L17.77 5.59C18.54 5.59 18.38 6.05 18.66 6.05C18.93 6.05 18.93 5.73 18.93 5.56L18.93 4.51C18.93 4.24 18.75 4.20 18.58 4.20L11.87 4.20C11.45 4.20 10.98 4.14 10.98 4.38C10.98 4.84 11.54 4.49 11.54 5.40L11.55 12.94C11.55 13.61 10.93 13.45 10.93 13.83C10.93 14.04 11.35 14 11.48 14ZM20.71 14L22.34 14C22.71 14 22.86 14.03 22.86 13.80C22.86 13.41 22.27 13.68 22.27 12.80L22.27 8.40C22.27 8.08 22.44 8.01 22.69 8.22L27.59 12.38C27.78 12.56 27.89 12.77 27.89 12.92L27.89 13.66C27.89 13.85 27.96 14 28.15 14L29.47 14C29.65 14 29.90 14 29.90 13.76C29.90 13.40 29.46 13.48 29.46 12.94L29.46 5.54C29.46 4.56 29.96 4.82 29.96 4.47C29.96 4.23 29.68 4.20 29.16 4.20L28.21 4.20C27.61 4.20 27.38 4.20 27.38 4.44C27.38 4.80 27.89 4.52 27.89 5.63L27.89 10.15C27.89 10.47 27.72 10.51 27.54 10.35L22.54 6.05C22.36 5.87 22.26 5.80 22.26 5.54L22.26 4.56C22.26 4.31 22.12 4.20 21.85 4.20L20.86 4.20C20.41 4.20 20.23 4.21 20.23 4.41C20.23 4.72 20.71 4.55 20.72 5.40L20.72 12.77C20.75 13.62 20.19 13.43 20.19 13.80C20.19 14 20.43 14 20.71 14ZM32.02 14L33.66 14C34.02 14 34.17 14.03 34.17 13.80C34.17 13.41 33.59 13.68 33.59 12.80L33.59 8.40C33.59 8.08 33.75 8.01 34.01 8.22L38.91 12.38C39.09 12.56 39.20 12.77 39.20 12.92L39.20 13.66C39.20 13.85 39.27 14 39.47 14L40.78 14C40.96 14 41.22 14 41.22 13.76C41.22 13.40 40.77 13.48 40.77 12.94L40.77 5.54C40.77 4.56 41.27 4.82 41.27 4.47C41.27 4.23 40.99 4.20 40.47 4.20L39.52 4.20C38.92 4.20 38.70 4.20 38.70 4.44C38.70 4.80 39.20 4.52 39.20 5.63L39.20 10.15C39.20 10.47 39.03 10.51 38.85 10.35L33.85 6.05C33.67 5.87 33.57 5.80 33.57 5.54L33.57 4.56C33.57 4.31 33.43 4.20 33.17 4.20L32.17 4.20C31.72 4.20 31.54 4.21 31.54 4.41C31.54 4.72 32.02 4.55 32.03 5.40L32.03 12.77C32.06 13.62 31.50 13.43 31.50 13.80C31.50 14 31.74 14 32.02 14ZM43.36 14L50.57 14C50.74 14 50.81 13.90 50.81 13.71L50.81 12.61C50.81 12.35 50.81 12.12 50.55 12.12C50.20 12.12 50.46 12.61 49.76 12.61L45.44 12.61C45.18 12.61 45.02 12.60 45.02 12.28L45.02 10.05C45.01 9.83 45.15 9.72 45.42 9.72L48.19 9.72C48.59 9.72 48.65 10.14 48.82 10.14C49.01 10.14 49.11 10.02 49.11 9.63L49.11 8.50C49.11 8.19 49.10 7.97 48.85 7.97C48.65 7.97 48.65 8.34 48.19 8.34L45.33 8.34C45.08 8.34 45.01 8.26 45.01 7.95L45.01 5.87C45.01 5.67 45.11 5.59 45.28 5.59L49.64 5.59C50.41 5.59 50.26 6.05 50.54 6.05C50.81 6.05 50.81 5.73 50.81 5.56L50.81 4.51C50.81 4.24 50.62 4.20 50.46 4.20L43.75 4.20C43.33 4.20 42.85 4.14 42.85 4.38C42.85 4.84 43.41 4.49 43.41 5.40L43.43 12.94C43.43 13.61 42.81 13.45 42.81 13.83C42.81 14.04 43.23 14 43.36 14ZM54.99 14L56.98 14C57.19 14 57.32 13.96 57.32 13.75C57.32 13.50 56.84 13.55 56.84 13.02L56.85 5.94C56.85 5.67 56.97 5.56 57.22 5.56L59.01 5.56C59.56 5.56 59.43 5.98 59.71 5.98C59.89 5.98 59.98 5.81 59.98 5.28L59.98 4.49C59.98 4.28 59.84 4.20 59.64 4.20L52.15 4.20C51.90 4.20 51.79 4.28 51.79 4.52L51.79 5.40C51.79 5.81 51.86 5.92 52.04 5.92C52.30 5.92 52.15 5.54 52.96 5.54L54.77 5.56C55.10 5.56 55.16 5.70 55.16 5.95L55.13 13.01C55.13 13.51 54.64 13.52 54.64 13.78C54.64 13.96 54.78 14 54.99 14ZM61.35 14L63.08 14C63.43 14 63.74 13.99 63.74 13.79C63.74 13.43 63.11 13.62 63.11 12.87L63.11 10.01C63.11 9.86 63.31 9.79 63.52 9.79L68.07 9.79C68.26 9.79 68.40 9.90 68.40 10.19L68.46 12.95C68.46 13.54 67.87 13.54 67.87 13.83C67.87 13.99 68.18 14 68.31 14L69.94 14C70.42 14 70.69 13.99 70.69 13.75C70.69 13.48 70.11 13.54 70.11 12.98L70.11 5.15C70.11 4.66 70.63 4.70 70.63 4.41C70.63 4.23 70.38 4.20 70.07 4.20L68.67 4.20C68.17 4.20 67.91 4.23 67.91 4.41C67.91 4.73 68.45 4.59 68.45 5.19L68.45 7.80C68.45 8.18 68.24 8.20 68.00 8.20L63.60 8.22C63.34 8.20 63.13 8.16 63.13 7.74L63.13 5.21C63.13 4.63 63.69 4.72 63.69 4.41C63.69 4.21 63.46 4.20 63.24 4.20L61.53 4.20C61.05 4.20 60.91 4.24 60.91 4.41C60.91 4.84 61.40 4.54 61.40 5.21L61.39 12.87C61.39 13.50 60.82 13.50 60.82 13.79C60.82 13.97 60.97 14 61.35 14ZM76.01 9.16C76.01 12.52 78.46 14.20 80.93 14.24C83.48 14.28 86.06 12.59 86.06 9.16C86.06 5.71 83.59 4.02 81.10 3.99C78.57 3.98 76.01 5.71 76.01 9.16ZM77.69 9.16C77.69 6.69 79.39 5.47 81.09 5.49C82.75 5.50 84.42 6.72 84.42 9.16C84.42 11.58 82.70 12.78 80.99 12.75C79.32 12.73 77.69 11.52 77.69 9.16ZM87.42 14L89.05 14C89.42 14 89.57 14.03 89.57 13.80C89.57 13.41 88.98 13.68 88.98 12.80L88.98 8.40C88.98 8.08 89.15 8.01 89.40 8.22L94.30 12.38C94.49 12.56 94.60 12.77 94.60 12.92L94.60 13.66C94.60 13.85 94.67 14 94.86 14L96.18 14C96.36 14 96.61 14 96.61 13.76C96.61 13.40 96.17 13.48 96.17 12.94L96.17 5.54C96.17 4.56 96.67 4.82 96.67 4.47C96.67 4.23 96.39 4.20 95.87 4.20L94.92 4.20C94.32 4.20 94.09 4.20 94.09 4.44C94.09 4.80 94.60 4.52 94.60 5.63L94.60 10.15C94.60 10.47 94.43 10.51 94.25 10.35L89.25 6.05C89.07 5.87 88.97 5.80 88.97 5.54L88.97 4.56C88.97 4.31 88.83 4.20 88.56 4.20L87.57 4.20C87.12 4.20 86.94 4.21 86.94 4.41C86.94 4.72 87.42 4.55 87.43 5.40L87.43 12.77C87.46 13.62 86.90 13.43 86.90 13.80C86.90 14 87.14 14 87.42 14ZM102.84 14.20C105.60 14.20 106.92 12.50 106.92 9.73L106.92 5.32C106.92 4.61 107.32 4.70 107.32 4.48C107.32 4.23 107.16 4.20 106.89 4.20L105.38 4.20C105.13 4.20 104.93 4.20 104.93 4.45C104.93 4.72 105.36 4.52 105.36 5.32L105.36 9.77C105.36 11.30 104.66 12.80 102.84 12.80C100.97 12.80 100.25 11.31 100.25 9.73L100.25 5.28C100.25 4.55 100.74 4.73 100.74 4.45C100.74 4.23 100.59 4.20 100.27 4.20L98.64 4.20C98.38 4.20 98.21 4.23 98.21 4.44C98.21 4.75 98.64 4.59 98.64 5.25L98.67 9.73C98.69 12.52 100.14 14.20 102.84 14.20Z"></path></g><defs data-v-fde0c5aa=""></defs><g data-v-fde0c5aa="" id="13b528f0-86a0-4017-b122-de07f9814281" stroke="none" fill="#39C643" transform="matrix(0.8153061389310173,0,0,0.8153061389310173,40,136.95510177710372)"><path d="M9.382 8.675h13.943v13.943L32 31.293V0H.707zM22.618 23.325H8.675V9.382L0 .707V32h31.293z"></path></g></svg>